<?xml version="1.0" encoding="UTF-8" standalone="no"?>
<svg
   xmlns:dc="http://purl.org/dc/elements/1.1/"
   xmlns:cc="http://creativecommons.org/ns#"
   xmlns:rdf="http://www.w3.org/1999/02/22-rdf-syntax-ns#"
   xmlns:svg="http://www.w3.org/2000/svg"
   xmlns="http://www.w3.org/2000/svg"
   xmlns:sodipodi="http://sodipodi.sourceforge.net/DTD/sodipodi-0.dtd"
   xmlns:inkscape="http://www.inkscape.org/namespaces/inkscape"
   viewBox="0 0 142.62439 53.813999"
   height="53.813999"
   width="142.62439"
   xml:space="preserve"
   id="svg872"
   version="1.1"
   sodipodi:docname="logo.svg"
   inkscape:version="0.92.2 (5c3e80d, 2017-08-06)"><sodipodi:namedview
     pagecolor="#ffffff"
     bordercolor="#666666"
     borderopacity="1"
     objecttolerance="10"
     gridtolerance="10"
     guidetolerance="10"
     inkscape:pageopacity="0"
     inkscape:pageshadow="2"
     inkscape:window-width="1920"
     inkscape:window-height="977"
     id="namedview58"
     showgrid="false"
     inkscape:zoom="2.637563"
     inkscape:cx="75.539541"
     inkscape:cy="33.358504"
     inkscape:window-x="0"
     inkscape:window-y="27"
     inkscape:window-maximized="1"
     inkscape:current-layer="g1064" /><metadata
     id="metadata878"><rdf:RDF><cc:Work
         rdf:about=""><dc:format>image/svg+xml</dc:format><dc:type
           rdf:resource="http://purl.org/dc/dcmitype/StillImage" /><dc:title /></cc:Work></rdf:RDF></metadata><defs
     id="defs876"><clipPath
       id="clipPath992"
       clipPathUnits="userSpaceOnUse"><path
         id="path990"
         d="m 274.016,122.457 h 75.127 v 28.346 h -75.127 z" /></clipPath><clipPath
       id="clipPath1068"
       clipPathUnits="userSpaceOnUse"><path
         id="path1066"
         d="m 238.775,428.017 h 106.969 v 40.361 H 238.775 Z" /></clipPath><clipPath
       id="clipPath1128"
       clipPathUnits="userSpaceOnUse"><path
         id="path1126"
         d="m 211.192,360.345 h 164.135 v 28.648 H 211.192 Z" /></clipPath><clipPath
       id="clipPath1208"
       clipPathUnits="userSpaceOnUse"><path
         id="path1206"
         d="m 263.863,252.944 h 59.045 v 68.151 h -59.045 z" /></clipPath><clipPath
       id="clipPath1268"
       clipPathUnits="userSpaceOnUse"><path
         id="path1266"
         d="m 274.016,57.74 h 75.127 v 28.346 h -75.127 z" /></clipPath><clipPath
       id="clipPath1420"
       clipPathUnits="userSpaceOnUse"><path
         id="path1418"
         d="m 664.124,338.213 h 118.838 v 44.839 H 664.124 Z" /></clipPath><clipPath
       id="clipPath1480"
       clipPathUnits="userSpaceOnUse"><path
         id="path1478"
         d="m 486.25,338.213 h 118.838 v 44.839 H 486.25 Z" /></clipPath><clipPath
       id="clipPath1540"
       clipPathUnits="userSpaceOnUse"><path
         id="path1538"
         d="m 486.25,189.496 h 118.838 v 44.509 H 486.25 Z" /></clipPath><clipPath
       id="clipPath1552"
       clipPathUnits="userSpaceOnUse"><path
         id="path1550"
         d="m 486.25,189.165 h 118.838 v 44.84 H 486.25 Z" /></clipPath><clipPath
       id="clipPath1596"
       clipPathUnits="userSpaceOnUse"><path
         id="path1594"
         d="m 664.124,189.165 h 118.838 v 44.84 H 664.124 Z" /></clipPath><clipPath
       id="clipPath1656"
       clipPathUnits="userSpaceOnUse"><path
         id="path1654"
         d="m 664.124,189.165 h 118.823 v 44.833 H 664.124 Z" /></clipPath><clipPath
       id="clipPath1672"
       clipPathUnits="userSpaceOnUse"><path
         id="path1670"
         d="m 664.124,189.165 h 118.838 v 44.84 H 664.124 Z" /></clipPath></defs><g
     transform="matrix(1.3333333,0,0,-1.3333333,-318.36759,624.50398)"
     id="g880"><g
       id="g1062"><g
         clip-path="url(#clipPath1068)"
         id="g1064"><g
           transform="translate(238.9591,444.6644)"
           id="g1070"><path
             id="path1072"
             style="fill:#ffffff;fill-opacity:1;fill-rule:nonzero;stroke:none"
             d="m 0,0 c 0.119,-10.246 8.53,-16.695 16.102,-16.457 7.74,0.212 16.795,6.211 16.914,16.338 v 23.65 H 0 Z" /></g><g
           transform="translate(239.1427,468.0115)"
           id="g1074"><path
             id="path1076"
             style="fill:#559821;fill-opacity:1;fill-rule:nonzero;stroke:none"
             d="m 0,0 v -23.347 c 0.117,-10.054 8.142,-16.279 15.51,-16.279 h 10e-4 c 0.134,0 0.268,0.002 0.401,0.005 7.961,0.219 16.623,6.458 16.737,16.157 V 0 Z M 15.511,-39.994 H 15.51 c -7.542,10e-4 -15.757,6.364 -15.877,16.645 V 0.367 h 33.383 v -23.833 c -0.117,-9.919 -8.963,-16.298 -17.093,-16.521 -0.137,-0.004 -0.274,-0.007 -0.412,-0.007" /></g><g
           transform="translate(260.605,449.9931)"
           id="g1078"><path
             id="path1080"
             style="fill:#559821;fill-opacity:1;fill-rule:evenodd;stroke:none"
             d="m 0,0 c -7.671,8.935 -16.915,1.768 -17.081,-4.682 -0.215,-7.86 6.304,-12.375 11.56,-12.16 5.448,0.193 11.994,4.061 12.16,11.586 H 6.473 C 5.445,-10.106 0.69,-10.796 -1.768,-9.078 -4.658,-7.047 -4.827,-1.599 0,0" /></g><g
           transform="translate(243.6174,455.4642)"
           id="g1082"><path
             id="path1084"
             style="fill:#0492d2;fill-opacity:1;fill-rule:evenodd;stroke:none"
             d="M 0,0 V 7.93 H 23.676 V -10.202 H 23.484 C 23.65,-0.312 11.301,9.413 0,0" /></g><g
           transform="translate(343.9658,434.4564)"
           id="g1086"
           style="fill:#ffffff"><path
             id="path1088"
             style="fill:#ffffff;fill-opacity:1;fill-rule:evenodd;stroke:none"
             d="m 0,0 c -0.223,-0.579 -0.417,-1.109 -0.417,-1.312 0,-0.056 0.029,-0.11 0.083,-0.11 0.222,0 0.775,0.654 0.858,0.784 0.019,0.028 0.056,0.082 0.101,0.082 0.047,0 0.102,-0.046 0.102,-0.102 0,-0.23 -1.034,-1.383 -1.715,-1.383 -0.305,0 -0.399,0.156 -0.399,0.433 0,0.334 0.214,0.984 0.454,1.611 z m -2.857,0 c -0.197,-0.602 -0.357,-1.132 -0.357,-1.284 0,-0.075 0.02,-0.157 0.093,-0.157 0.221,0 0.721,0.654 0.821,0.849 0.038,0.054 0.074,0.083 0.111,0.083 0.047,0 0.083,-0.038 0.083,-0.083 0,-0.231 -0.877,-1.44 -1.697,-1.44 -0.102,0 -0.371,0 -0.371,0.388 0,0.231 0.167,0.765 0.25,1.006 l 0.185,0.553 c 0.007,0.018 0.018,0.05 0.029,0.083 z m -2.94,0 c -0.146,-0.352 -0.232,-0.68 -0.232,-0.916 0,-0.12 0,-0.479 0.36,-0.479 0.374,0 1.064,0.666 1.621,1.392 L -3.797,0 c -0.034,-0.047 -0.067,-0.091 -0.099,-0.131 -0.655,-0.848 -1.477,-1.91 -2.326,-1.91 -0.517,0 -0.766,0.442 -0.766,0.96 0,0.375 0.089,0.741 0.243,1.082 z m -1.811,0 c -0.426,-1.134 -1.434,-2.032 -2.544,-2.032 -0.296,0 -0.527,0.147 -0.527,0.379 0,0.212 0.251,0.387 0.425,0.387 0.435,0 0.351,-0.489 0.675,-0.489 0.317,0 0.713,0.897 0.966,1.755 z m -2.959,0 c -0.343,-0.521 -0.646,-1.089 -0.831,-1.599 -0.111,-0.304 -0.129,-0.322 -0.526,-0.322 -0.295,0 -0.398,0 -0.398,0.157 0,0.085 0.253,0.847 0.551,1.761 z m -7.163,0 c -0.21,-0.536 -0.386,-1.014 -0.386,-1.21 0,-0.222 0.129,-0.324 0.342,-0.324 0.432,0 0.912,0.471 1.217,0.932 0.109,0.164 0.223,0.34 0.358,0.602 h 1.037 c -0.153,-0.503 -0.269,-0.949 -0.269,-1.137 0,-0.091 0,-0.433 0.387,-0.433 0.576,0 1.319,0.802 1.713,1.567 L -13.05,0 c -0.584,-1.037 -1.538,-2.032 -2.52,-2.032 -0.507,0 -0.729,0.342 -0.729,0.673 0,0.231 0.074,0.509 0.279,1.154 h -0.021 c -0.286,-0.489 -1.115,-1.836 -2.104,-1.836 -0.525,0 -0.83,0.369 -0.83,0.831 0,0.282 0.165,0.756 0.346,1.214 z m -2.909,0 c -0.197,-0.602 -0.357,-1.132 -0.357,-1.284 0,-0.075 0.018,-0.157 0.092,-0.157 0.223,0 0.721,0.654 0.822,0.849 0.036,0.054 0.074,0.083 0.111,0.083 0.045,0 0.083,-0.038 0.083,-0.083 0,-0.231 -0.877,-1.44 -1.699,-1.44 -0.101,0 -0.369,0 -0.369,0.388 0,0.231 0.166,0.765 0.25,1.006 l 0.185,0.553 c 0.006,0.018 0.017,0.05 0.029,0.083 z m -2.941,0 c -0.147,-0.352 -0.231,-0.68 -0.231,-0.916 0,-0.12 0,-0.479 0.36,-0.479 0.373,0 1.064,0.666 1.622,1.392 L -21.581,0 c -0.031,-0.047 -0.064,-0.091 -0.098,-0.131 -0.654,-0.848 -1.476,-1.91 -2.326,-1.91 -0.516,0 -0.765,0.442 -0.765,0.96 0,0.375 0.089,0.741 0.243,1.082 z m -2.596,0 c -0.044,-0.143 -0.096,-0.308 -0.155,-0.5 -0.054,-0.167 -0.184,-0.599 -0.184,-0.739 0,-0.12 0.055,-0.165 0.112,-0.165 0.147,0 0.617,0.377 0.894,0.812 0.028,0.054 0.074,0.101 0.121,0.101 0.055,0 0.1,-0.056 0.1,-0.101 0,-0.276 -1.005,-1.44 -1.762,-1.44 -0.193,0 -0.378,0.147 -0.378,0.535 0,0.278 0.074,0.572 0.119,0.748 0.052,0.205 0.124,0.462 0.213,0.744 z m -2.449,0 0.044,-0.787 c 0.046,-0.857 0.093,-0.885 0.351,-0.894 0.276,-0.009 0.295,-0.074 0.295,-0.14 0,-0.109 -0.084,-0.147 -0.157,-0.147 -0.138,0 -0.314,0.074 -1.153,0.074 -0.803,0 -0.867,-0.074 -1.034,-0.074 -0.075,0 -0.147,0.038 -0.147,0.12 0,0.111 0.083,0.149 0.23,0.167 0.462,0.055 0.544,0.13 0.544,0.48 L -29.702,0 Z m -3.081,0 -0.585,-0.814 c -0.231,-0.323 -0.249,-0.405 -0.249,-0.498 0,-0.249 0.249,-0.296 0.525,-0.341 0.231,-0.037 0.333,-0.046 0.333,-0.176 0,-0.046 -0.028,-0.139 -0.186,-0.139 -0.118,0 -0.728,0.074 -0.978,0.074 -0.618,0 -0.793,-0.074 -0.923,-0.074 -0.063,0 -0.165,0.018 -0.165,0.13 0,0.083 0.064,0.119 0.165,0.139 0.417,0.073 0.444,0.073 1.191,1.07 L -32.111,0 Z m -4.417,0 c -0.197,-0.602 -0.357,-1.132 -0.357,-1.284 0,-0.075 0.019,-0.157 0.093,-0.157 0.222,0 0.719,0.654 0.821,0.849 0.037,0.054 0.074,0.083 0.111,0.083 0.045,0 0.084,-0.038 0.084,-0.083 0,-0.231 -0.878,-1.44 -1.699,-1.44 -0.102,0 -0.369,0 -0.369,0.388 0,0.231 0.165,0.765 0.249,1.006 l 0.185,0.553 c 0.006,0.018 0.018,0.05 0.029,0.083 z m -2.94,0 c -0.148,-0.352 -0.232,-0.68 -0.232,-0.916 0,-0.12 0,-0.479 0.361,-0.479 0.373,0 1.064,0.666 1.621,1.392 L -37.063,0 c -0.033,-0.047 -0.067,-0.091 -0.1,-0.131 -0.654,-0.848 -1.476,-1.91 -2.324,-1.91 -0.518,0 -0.767,0.442 -0.767,0.96 0,0.375 0.09,0.741 0.243,1.082 z m -4.693,0 -0.29,-0.85 c -0.091,-0.259 -0.12,-0.453 -0.12,-0.509 0,-0.267 0.258,-0.451 0.609,-0.451 0.877,0 1.48,0.937 1.797,1.808 L -40.834,0 c -0.366,-0.988 -1.198,-2.032 -2.575,-2.032 -0.545,0 -0.766,0.166 -0.904,0.277 l -0.387,-1.31 c -0.039,-0.12 -0.056,-0.213 -0.056,-0.278 0,-0.184 0.166,-0.231 0.332,-0.249 0.332,-0.037 0.443,-0.045 0.443,-0.166 0,-0.129 -0.119,-0.129 -0.203,-0.129 -0.037,0 -0.582,0.074 -1.218,0.074 -0.757,0 -1.108,-0.074 -1.153,-0.074 -0.084,0 -0.093,0.064 -0.093,0.102 0,0.166 0.185,0.175 0.396,0.193 0.443,0.038 0.555,0.203 0.701,0.656 L -44.588,0 Z m -2.637,0 c -0.198,-0.602 -0.356,-1.132 -0.356,-1.284 0,-0.075 0.017,-0.157 0.092,-0.157 0.221,0 0.719,0.654 0.821,0.849 0.036,0.054 0.074,0.083 0.111,0.083 0.045,0 0.084,-0.038 0.084,-0.083 0,-0.231 -0.878,-1.44 -1.699,-1.44 -0.102,0 -0.37,0 -0.37,0.388 0,0.231 0.166,0.765 0.249,1.006 l 0.186,0.553 c 0.006,0.018 0.017,0.05 0.029,0.083 z m -2.941,0 c -0.147,-0.352 -0.23,-0.68 -0.23,-0.916 0,-0.12 0,-0.479 0.359,-0.479 0.374,0 1.065,0.666 1.622,1.392 L -47.334,0 c -0.032,-0.047 -0.066,-0.091 -0.099,-0.131 -0.654,-0.848 -1.475,-1.91 -2.324,-1.91 -0.518,0 -0.767,0.442 -0.767,0.96 0,0.375 0.09,0.741 0.243,1.082 z m -4.292,0 -0.219,-0.749 c -0.028,-0.092 -0.119,-0.443 -0.119,-0.61 0,-0.276 0.166,-0.285 0.479,-0.313 0.323,-0.027 0.351,-0.056 0.351,-0.157 0,-0.121 -0.093,-0.139 -0.148,-0.139 -0.037,0 -0.692,0.074 -1.32,0.074 -0.599,0 -1.089,-0.074 -1.19,-0.074 -0.129,0 -0.157,0.028 -0.157,0.111 0,0.129 0.129,0.147 0.295,0.167 0.453,0.046 0.517,0.055 0.693,0.654 L -54.658,0 Z m -5.632,0 c -0.051,-0.006 -0.096,-0.014 -0.131,-0.02 l -1.108,-0.203 c -0.018,-0.166 -0.018,-0.231 -0.018,-0.286 0,-0.904 0.6,-0.988 0.775,-0.988 0.166,0 0.619,0.027 1.2,0.59 0.203,0.204 0.222,0.222 0.267,0.222 0.056,0 0.074,-0.045 0.074,-0.093 0,-0.156 -0.913,-1.254 -1.919,-1.254 -0.692,0 -1.394,0.508 -1.394,1.523 0,0.176 0.017,0.345 0.048,0.507 z m -4.023,0 -0.288,-0.97 c -0.073,-0.24 -0.129,-0.425 -0.129,-0.5 0,-0.165 0.167,-0.211 0.462,-0.22 0.221,-0.009 0.313,-0.029 0.313,-0.148 0,-0.13 -0.129,-0.13 -0.175,-0.13 -0.12,0 -0.655,0.074 -1.282,0.074 -0.647,0 -1.016,-0.074 -1.154,-0.074 -0.074,0 -0.13,0.038 -0.13,0.111 0,0.138 0.13,0.158 0.517,0.194 0.231,0.028 0.351,0.064 0.489,0.526 L -64.319,0 Z" /></g><g
           transform="translate(344.5641,437.1586)"
           id="g1090"
           style="fill:#ffffff"><path
             id="path1092"
             style="fill:#ffffff;fill-opacity:1;fill-rule:evenodd;stroke:none"
             d="m 0,0 c -0.305,0 -0.387,0.287 -0.387,0.47 0,0.315 0.258,0.702 0.59,0.702 0.379,0 0.379,-0.387 0.379,-0.471 C 0.582,0.369 0.323,0 0,0 m -59.074,-1.116 c 0,0.082 0,0.517 -0.443,0.517 -0.683,0 -1.319,-1.026 -1.541,-2.077 0.637,0.074 1.984,0.323 1.984,1.56 m 5.111,-0.692 c 0.443,0.018 0.96,0.036 1.421,0.295 0.609,0.35 0.942,0.941 0.942,1.504 0,0.914 -0.794,0.914 -1.191,0.914 -0.368,0 -0.379,0 -0.488,-0.387 z m 21.969,-0.443 h 1.68 l -0.074,1.873 c -0.01,0.194 -0.01,0.212 -0.046,0.212 -0.037,0 -0.545,-0.683 -0.618,-0.794 z m 30.462,-0.451 c 0.178,0.467 0.369,0.918 0.498,1.216 0.084,0.194 0.149,0.323 0.149,0.425 0,0.018 0,0.092 -0.075,0.092 -0.194,0 -0.95,-0.766 -0.968,-0.766 -0.047,0 -0.093,0.047 -0.093,0.101 0,0.177 0.951,1.237 1.781,1.237 0.276,0 0.294,-0.23 0.294,-0.368 0,-0.287 -0.352,-1.157 -0.652,-1.937 z m -5.812,0 c 0.566,1.267 1.999,2.222 2.979,2.222 0.267,0 0.462,-0.064 0.553,-0.119 0,0 0.122,-0.066 0.149,-0.066 0.036,0 0.073,0.084 0.082,0.121 0.047,0.129 0.101,0.166 0.37,0.166 l 0.303,-0.009 c 0.066,0 0.195,0 0.195,-0.102 0,-0.045 -0.42,-1.224 -0.742,-2.209 l -0.854,-0.004 c 0.018,0.056 0.04,0.123 0.046,0.145 -0.035,-0.027 -0.082,-0.086 -0.132,-0.151 l -0.251,0.006 c 0.475,0.615 0.854,1.276 0.854,1.604 0,0.369 -0.407,0.397 -0.518,0.397 -0.881,0 -1.7,-1.083 -2.085,-2.003 z m -6.585,0 c 0.167,0.324 0.272,0.645 0.272,0.894 0,0.23 -0.057,0.331 -0.139,0.489 -0.092,0.165 -0.129,0.285 -0.129,0.434 0,0.516 0.369,0.562 0.453,0.562 0.12,0 0.405,-0.092 0.405,-0.637 0,-0.448 -0.22,-1.103 -0.581,-1.744 z m -2.868,0 c 0.207,0.402 0.463,1.009 0.833,2.093 0.035,0.12 0.064,0.184 0.47,0.184 0.083,0 0.341,0 0.407,-0.027 0.045,-0.018 0.045,-0.064 0.045,-0.082 0,-0.013 -0.425,-1.198 -0.718,-2.166 z m -2.43,0 c 0.08,0.205 0.162,0.402 0.235,0.58 0.258,0.618 0.398,0.977 0.398,1.126 0,0.102 -0.065,0.129 -0.111,0.129 -0.258,0 -0.831,-0.674 -0.95,-0.821 -0.02,-0.019 -0.083,-0.093 -0.158,-0.093 -0.055,0 -0.082,0.036 -0.082,0.093 0,0.231 0.959,1.301 1.789,1.301 0.055,0 0.444,0 0.444,-0.369 0,-0.311 -0.366,-1.185 -0.666,-1.951 z m -5.898,0 c 0.564,1.267 1.996,2.222 2.977,2.222 0.268,0 0.461,-0.064 0.554,-0.119 0,0 0.12,-0.066 0.147,-0.066 0.038,0 0.074,0.084 0.083,0.121 0.048,0.129 0.102,0.166 0.369,0.166 l 0.306,-0.009 c 0.064,0 0.194,0 0.194,-0.102 0,-0.045 -0.422,-1.224 -0.743,-2.209 l -0.852,-0.004 c 0.017,0.056 0.037,0.123 0.044,0.145 -0.034,-0.027 -0.081,-0.086 -0.133,-0.151 l -0.248,0.006 c 0.474,0.615 0.851,1.276 0.851,1.604 0,0.369 -0.405,0.397 -0.516,0.397 -0.882,0 -1.7,-1.083 -2.086,-2.003 z m -2.569,0 c 0.182,0.585 0.422,1.29 0.627,1.889 h -0.582 c -0.093,0 -0.192,0 -0.192,0.075 0,0.231 0.174,0.231 0.423,0.231 h 0.444 c 0.074,0.165 0.305,1.043 0.416,1.088 0.1,0.037 0.47,0.046 0.599,0.046 0.12,0 0.202,0 0.202,-0.109 0,-0.075 -0.129,-0.453 -0.165,-0.555 l -0.12,-0.332 c -0.009,-0.028 -0.028,-0.101 -0.046,-0.138 h 0.96 c 0.072,0 0.072,-0.074 0.072,-0.092 0,-0.177 -0.156,-0.214 -0.249,-0.214 h -0.875 c -0.271,-0.834 -0.315,-0.977 -0.594,-1.887 z m -12.915,0 c 0.565,1.267 1.998,2.222 2.978,2.222 0.267,0 0.462,-0.064 0.553,-0.119 0,0 0.12,-0.066 0.149,-0.066 0.036,0 0.073,0.084 0.082,0.121 0.047,0.129 0.102,0.166 0.368,0.166 l 0.305,-0.009 c 0.066,0 0.195,0 0.195,-0.102 0,-0.045 -0.422,-1.224 -0.742,-2.209 l -0.853,-0.004 c 0.017,0.056 0.039,0.123 0.044,0.145 -0.034,-0.027 -0.081,-0.086 -0.131,-0.151 l -0.25,0.006 c 0.475,0.615 0.851,1.276 0.851,1.604 0,0.369 -0.405,0.397 -0.516,0.397 -0.881,0 -1.7,-1.083 -2.085,-2.003 z m -4.577,0 0.625,1.908 c -0.221,-0.019 -0.572,-0.091 -0.655,-0.12 -0.028,-0.009 -0.055,-0.009 -0.073,-0.009 -0.056,0 -0.084,0.047 -0.084,0.092 0,0.157 0.093,0.166 0.905,0.306 l 0.054,0.183 c 0.138,0.462 0.213,0.711 0.269,0.758 0.037,0.036 0.055,0.054 0.673,0.054 0.12,0 0.139,-0.018 0.139,-0.083 0,-0.12 -0.259,-0.756 -0.259,-0.812 0.23,0.038 0.407,0.074 0.859,0.074 0.331,0 1.523,0 1.523,-1.255 0,-0.307 -0.073,-0.698 -0.222,-1.1 l -0.926,0.004 c 0.173,0.477 0.261,0.934 0.261,1.207 0,0.803 -0.544,0.886 -0.996,0.886 -0.221,0 -0.398,-0.027 -0.563,-0.045 l -0.698,-2.048 z m -5.693,0 c 0.565,1.267 1.998,2.222 2.979,2.222 0.267,0 0.459,-0.064 0.552,-0.119 0,0 0.12,-0.066 0.149,-0.066 0.036,0 0.073,0.084 0.082,0.121 0.047,0.129 0.102,0.166 0.368,0.166 l 0.306,-0.009 c 0.065,0 0.194,0 0.194,-0.102 0,-0.045 -0.422,-1.224 -0.742,-2.209 l -0.853,-0.004 c 0.018,0.056 0.039,0.123 0.043,0.145 -0.032,-0.027 -0.08,-0.086 -0.131,-0.151 l -0.25,0.006 c 0.476,0.615 0.852,1.276 0.852,1.604 0,0.369 -0.405,0.397 -0.516,0.397 -0.882,0 -1.7,-1.083 -2.086,-2.003 z m -11.183,0 c 0.287,1.487 1.802,2.315 2.693,2.315 0.516,0 1.154,-0.323 1.154,-0.969 0,-0.903 -1.145,-1.239 -1.641,-1.342 z m 51.857,3.886 c -0.109,-0.357 -0.432,-1.343 -0.545,-1.7 l -0.647,-2.031 c 0.887,1.219 1.726,2.142 2.539,2.142 0.305,0 0.877,-0.185 0.868,-1.19 -0.004,-0.38 -0.082,-0.758 -0.216,-1.112 l -1.005,0.005 c 0.15,0.516 0.25,1.015 0.25,1.299 0,0.461 -0.24,0.48 -0.377,0.48 -0.419,0 -1.192,-0.811 -1.827,-1.778 l -1.204,-10e-4 c 0.447,1.354 1.001,3.045 1.001,3.349 0,0.211 -0.12,0.211 -0.407,0.211 -0.128,0 -0.156,0.047 -0.156,0.101 0,0.167 0.193,0.167 0.277,0.167 l 0.212,-0.009 c 0.182,-0.006 0.399,0.026 0.584,0.069 z m -19.252,0 c 0.021,-0.088 0.029,-0.326 0.038,-0.408 l 0.196,-3.478 h -1.078 l -0.004,0.109 h -1.919 l -0.08,-0.109 h -0.405 l 1.712,2.305 c 0.198,0.259 0.942,1.241 1.279,1.576 z m -25.178,0 c 0.134,-0.026 0.312,-0.067 0.838,-0.067 0.622,0 0.965,0.041 1.351,0.062 l 0.608,0.005 c 1.272,-0.096 1.272,-1.116 1.272,-1.23 0,-0.748 -0.555,-1.477 -1.247,-1.753 -0.294,-0.12 -0.636,-0.258 -2.224,-0.258 l -0.188,-0.645 h -1.032 l 0.888,3.034 c 0.028,0.102 0.074,0.231 0.074,0.351 0,0.194 -0.259,0.24 -0.397,0.24 -0.185,0.009 -0.24,0.055 -0.24,0.138 0,0.076 0.057,0.111 0.113,0.123 z m -10.558,0 c 0.022,-0.067 0.096,-0.067 0.334,-0.067 h 2.686 c 0.567,0 0.813,0 0.952,0.066 l 0.391,10e-4 c -0.121,-0.358 -0.361,-1.003 -0.402,-1.175 -0.046,-0.193 -0.111,-0.203 -0.176,-0.203 -0.138,0 -0.138,0.101 -0.138,0.139 0,0.082 0.093,0.498 0.093,0.591 0,0.276 -0.102,0.276 -1.219,0.276 -0.175,0 -0.175,-0.036 -0.277,-0.369 l -0.93,-3.145 h -1.039 l 0.973,3.265 c 0.027,0.111 0.027,0.12 0.027,0.165 0,0.084 -0.037,0.084 -0.415,0.084 -0.655,0 -0.941,-0.064 -1.393,-0.84 -0.075,-0.138 -0.13,-0.156 -0.185,-0.156 -0.046,0 -0.138,0.018 -0.138,0.091 0,0.072 0.341,0.919 0.476,1.277 z" /></g><g
           transform="translate(333.7062,438.3425)"
           id="g1094"
           style="fill:#ffffff"><path
             id="path1096"
             style="fill:#ffffff;fill-opacity:1;fill-rule:evenodd;stroke:none"
             d="M 0,0 C 0.164,0.038 0.3,0.082 0.366,0.117 0.458,0.164 0.551,0.21 0.597,0.21 0.68,0.21 0.689,0.164 0.689,0.126 0.689,0.12 0.676,0.073 0.653,-0.001 Z m -18.86,0 c 0.071,0.067 0.124,0.108 0.15,0.108 0.065,0 0.093,-0.037 0.102,-0.082 0.003,-0.006 0.006,-0.015 0.009,-0.026 z m -22.728,0 c 0.129,0.002 0.261,0.007 0.411,0.007 0.07,0 0.135,-0.002 0.197,-0.007 z m -2.373,0 c 0.018,0.005 0.037,0.007 0.053,0.007 0.046,0 0.086,-0.005 0.13,-0.012 z m -6.402,0 c 0.079,0.035 0.124,0.093 0.174,0.182 0.073,0.129 0.138,0.138 0.175,0.138 0.073,0 0.11,-0.036 0.11,-0.092 0,-0.021 -0.027,-0.109 -0.069,-0.233 z m -4.352,0 c 0.024,0.062 0.041,0.11 0.049,0.135 0.056,0.14 0.093,0.231 0.222,0.231 0.046,0 0.12,-0.009 0.12,-0.12 0,-0.018 -0.018,-0.147 -0.018,-0.175 0,-0.03 10e-4,-0.054 0.007,-0.072 z" /></g><g
           transform="translate(344.722,446.8926)"
           id="g1098"
           style="fill:#ffffff"><path
             id="path1100"
             style="fill:#ffffff;fill-opacity:1;fill-rule:evenodd;stroke:none"
             d="m 0,0 v -1.575 c 0,-0.69 0,-0.837 0.529,-0.911 0.307,-0.037 0.368,-0.098 0.368,-0.209 0,-0.148 -0.123,-0.148 -0.209,-0.148 -0.184,0 -1.083,0.05 -1.279,0.05 -0.185,0 -1.084,-0.05 -1.293,-0.05 -0.085,0 -0.208,0 -0.208,0.161 0,0.111 0.085,0.159 0.369,0.196 0.529,0.074 0.529,0.209 0.529,0.898 V 0 Z m -3.668,0 v -1.575 c 0,-0.69 0,-0.837 0.53,-0.911 0.306,-0.037 0.369,-0.098 0.369,-0.209 0,-0.148 -0.123,-0.148 -0.21,-0.148 -0.183,0 -1.058,0.05 -1.292,0.05 -0.184,0 -1.07,-0.05 -1.267,-0.05 -0.099,0 -0.222,0 -0.222,0.161 0,0.111 0.099,0.159 0.369,0.196 0.53,0.074 0.53,0.209 0.53,0.898 V 0 Z m -7.046,0 c 0.063,-1.441 0.79,-2.634 1.719,-2.634 0.899,0 1.673,1.145 1.673,2.596 v 0.04 L -6.042,0 c -0.04,-1.595 -1.234,-2.916 -2.917,-2.916 -1.907,0 -3.039,1.501 -3.039,2.891 0,0.009 0,0.018 10e-4,0.027 z m -2.391,0 v -1.588 c 0,-0.677 0,-0.824 0.53,-0.898 0.308,-0.037 0.369,-0.098 0.369,-0.209 0,-0.148 -0.123,-0.148 -0.21,-0.148 -0.183,0 -0.713,0.05 -1.279,0.05 -0.517,0 -1.083,-0.05 -1.293,-0.05 -0.084,0 -0.207,0 -0.207,0.161 0,0.111 0.097,0.159 0.369,0.196 0.528,0.074 0.528,0.209 0.528,0.886 V 0 Z m -4.082,0 v -1.108 c 0,-0.553 0.074,-1.119 0.714,-1.119 0.185,0 0.356,0.037 0.787,0.307 0.036,0.024 0.099,0.05 0.135,0.05 0.061,0 0.099,-0.062 0.099,-0.111 0,-0.185 -0.788,-0.935 -1.687,-0.935 -0.639,0 -1.241,0.417 -1.241,1.341 V 0 Z m -4.691,0 c -0.169,-0.051 -0.38,-0.161 -0.527,-0.233 -0.776,-0.371 -0.776,-0.839 -0.776,-1.084 0,-0.591 0.285,-0.812 0.555,-0.812 0.553,0 1.033,0.443 1.033,1.305 v 0.714 c 0,0.06 -0.018,0.095 -0.044,0.113 L -20.399,0 v -1.465 c 0,-0.381 0.037,-0.689 0.382,-0.689 0.135,0 0.259,0.05 0.357,0.123 0.135,0.111 0.147,0.123 0.208,0.123 0.074,0 0.111,-0.073 0.111,-0.111 0,-0.294 -0.751,-0.873 -1.292,-0.873 -0.48,0 -0.714,0.369 -0.861,0.665 -0.111,0.234 -0.135,0.234 -0.172,0.234 -0.026,0 -0.086,-0.05 -0.086,-0.05 -0.518,-0.418 -1.181,-0.873 -1.736,-0.873 -0.898,0 -0.959,0.849 -0.959,1.033 0,0.776 0.486,1.276 1.84,1.882 z m -5.868,0 0.518,-1.268 L -26.66,0 h 0.422 l -1.249,-2.793 c -0.073,-0.173 -0.124,-0.234 -0.197,-0.234 -0.11,0 -0.161,0.073 -0.221,0.209 L -29.071,0 Z m -5.598,0 v -1.588 c 0,-0.504 0,-0.836 0.627,-0.873 0.271,-0.012 0.444,-0.025 0.444,-0.209 0,-0.173 -0.161,-0.173 -0.259,-0.173 -0.209,0 -1.206,0.05 -1.428,0.05 -0.184,0 -1.082,-0.05 -1.279,-0.05 -0.085,0 -0.208,0 -0.208,0.161 0,0.111 0.085,0.159 0.369,0.196 0.54,0.074 0.54,0.209 0.54,0.898 V 0 Z m -6.588,0 c 0.086,-1.275 0.968,-2.227 2.171,-2.227 0.554,0 1.058,0.208 1.354,0.492 0.184,0.184 0.196,0.197 0.27,0.197 0.086,0 0.111,-0.074 0.111,-0.111 0,-0.185 -0.86,-1.267 -2.424,-1.267 -1.625,0 -2.855,1.07 -2.855,2.781 0,0.048 0,0.093 0.003,0.14 z m -2.379,0 c 0.202,-0.238 0.343,-0.543 0.343,-0.935 0,-0.923 -0.75,-1.981 -2.374,-1.981 -0.738,0 -1.501,0.307 -1.55,0.345 -0.149,0.072 -0.149,0.171 -0.149,0.467 l 0.026,0.909 c 0,0.038 0.012,0.222 0.172,0.222 0.135,0 0.197,-0.11 0.258,-0.344 0.062,-0.221 0.418,-1.292 1.414,-1.292 0.555,0 1.195,0.37 1.195,1.009 0,0.653 -0.566,0.935 -1.415,1.268 -0.25,0.097 -0.519,0.202 -0.762,0.334 z m -5.179,0 v -1.575 c 0,-0.69 0,-0.837 0.529,-0.911 0.306,-0.037 0.369,-0.098 0.369,-0.209 0,-0.148 -0.123,-0.148 -0.21,-0.148 -0.185,0 -1.082,0.05 -1.279,0.05 -0.186,0 -1.083,-0.05 -1.292,-0.05 -0.087,0 -0.21,0 -0.21,0.161 0,0.111 0.087,0.159 0.369,0.196 0.53,0.074 0.53,0.209 0.53,0.898 V 0 Z m -3.667,0 v -1.575 c 0,-0.69 0,-0.837 0.529,-0.911 0.307,-0.037 0.368,-0.098 0.368,-0.209 0,-0.148 -0.123,-0.148 -0.208,-0.148 -0.185,0 -1.058,0.05 -1.293,0.05 -0.184,0 -1.071,-0.05 -1.266,-0.05 -0.099,0 -0.222,0 -0.222,0.161 0,0.111 0.099,0.159 0.369,0.196 0.528,0.074 0.528,0.209 0.528,0.898 V 0 Z m -7.046,0 c 0.061,-1.441 0.788,-2.634 1.718,-2.634 0.899,0 1.674,1.145 1.674,2.596 0,0.014 -10e-4,0.026 -10e-4,0.04 L -53.532,0 c -0.04,-1.595 -1.234,-2.916 -2.916,-2.916 -1.907,0 -3.039,1.501 -3.039,2.891 v 0.027 z m -7.16,0 c 0.325,-1.369 1.265,-2.609 2.74,-2.609 1.132,0 1.674,0.689 2.19,1.636 0.025,0.05 0.123,0.234 0.246,0.234 0.185,0 0.185,-0.111 0.185,-0.196 L -60.1,-1.981 c -0.012,-0.173 -0.037,-0.284 -0.295,-0.431 -0.198,-0.123 -1.022,-0.504 -2.265,-0.504 -2.478,0 -3.85,1.512 -4.305,2.918 z" /></g><g
           transform="translate(306.6163,448.1349)"
           id="g1102"
           style="fill:#ffffff"><path
             id="path1104"
             style="fill:#ffffff;fill-opacity:1;fill-rule:evenodd;stroke:none"
             d="m 0,0 c 0.53,0 0.836,0.271 0.836,0.591 0,0.726 -0.836,0.751 -1.02,0.751 -1.108,0 -1.489,-1.01 -1.489,-1.206 C -1.673,0 -1.624,0 -1.34,0 Z m 33.245,-1.242 v 0.774 c 0,0.579 0,0.85 -0.369,0.874 -0.198,0.013 -0.333,0.013 -0.333,0.173 0,0.074 0.037,0.123 0.172,0.159 0.086,0.025 0.874,0.358 1.255,0.801 0.087,0.098 0.186,0.221 0.271,0.221 0.112,0 0.136,-0.111 0.136,-0.221 V 0.936 c 0,-0.21 0,-0.247 0.049,-0.247 0.074,0 0.135,0.037 0.173,0.074 0.75,0.702 1.118,0.861 1.808,0.861 0.812,0 1.699,-0.442 1.699,-1.587 v -1.279 h -1.195 v 0.639 c 0,0.579 0,1.502 -1.206,1.502 -0.368,0 -0.75,-0.136 -1.033,-0.419 -0.184,-0.185 -0.234,-0.394 -0.234,-0.689 v -1.033 z m -7.136,0 c 0.014,1.397 1.168,2.866 2.99,2.866 1.402,0 2.964,-0.922 2.964,-2.781 v -0.08 l -1.279,-0.005 c -0.013,0.864 -0.462,2.584 -1.785,2.584 -0.884,0 -1.612,-0.886 -1.612,-2.388 0,-0.067 0.002,-0.132 0.005,-0.198 z m -2.301,0 v 0.738 c 0,0.627 -0.111,0.799 -0.555,0.824 -0.036,0 -0.232,0.012 -0.232,0.16 0,0.086 0.049,0.148 0.196,0.197 0.591,0.197 0.875,0.357 1.084,0.505 0.085,0.061 0.466,0.393 0.565,0.393 0.135,0 0.135,-0.16 0.135,-0.43 v -2.387 z m -8.309,0 c 0.214,0.094 0.448,0.193 0.706,0.295 0.296,0.122 0.308,0.221 0.308,0.443 v 0.812 c 0,0.43 -0.036,1.021 -0.615,1.021 -0.713,0 -0.985,-0.75 -1.083,-1.034 -0.197,-0.554 -0.91,-0.602 -0.922,-0.602 -0.135,0 -0.272,0.086 -0.272,0.246 0,0.418 0.775,1.685 2.646,1.685 1.157,0 1.439,-0.393 1.439,-0.898 v -1.968 h -1.237 c -0.028,0.021 -0.061,0.024 -0.091,0.024 -0.043,0 -0.094,-0.01 -0.15,-0.027 z m -4.054,0 0.441,0.983 c 0.074,0.161 0.283,0.678 0.283,0.924 0,0.369 -0.296,0.431 -0.541,0.443 -0.333,0.012 -0.444,0.024 -0.444,0.16 0,0.172 0.173,0.172 0.309,0.172 0.123,0 0.542,-0.049 1.007,-0.049 0.617,0 0.912,0.049 1.073,0.049 0.073,0 0.195,0 0.195,-0.16 0,-0.135 -0.036,-0.135 -0.417,-0.184 C 13.178,1.071 12.883,1.034 12.539,0.259 l -0.672,-1.501 z m -2.41,0 -0.632,1.526 C 8.084,1.046 7.949,1.108 7.53,1.132 c -0.062,0 -0.185,0.013 -0.185,0.16 0,0.148 0.185,0.148 0.32,0.148 0.369,0 0.726,-0.049 1.317,-0.049 0.616,0 0.898,0.049 1.182,0.049 0.073,0 0.258,0 0.258,-0.148 0,-0.172 -0.246,-0.184 -0.395,-0.196 C 9.955,1.096 9.61,1.071 9.61,0.763 9.61,0.615 9.695,0.406 9.708,0.357 l 0.652,-1.599 z m -5.468,0 v 0.786 c 0,0.776 -0.159,0.801 -0.626,0.825 -0.037,0 -0.16,0 -0.16,0.135 0,0.087 0.048,0.136 0.196,0.173 0.284,0.099 0.985,0.48 1.243,0.75 0.025,0.025 0.308,0.308 0.369,0.308 0.123,0 0.136,-0.098 0.136,-0.209 V 0.911 c 0,-0.074 0,-0.173 0.074,-0.173 0.037,0 0.098,0.074 0.111,0.099 0.024,0.037 0.626,0.738 1.341,0.738 0.443,0 0.886,-0.246 0.886,-0.738 0,-0.505 -0.443,-0.701 -0.752,-0.701 -0.27,0 -0.442,0.098 -0.639,0.32 -0.21,0.233 -0.308,0.258 -0.381,0.258 -0.246,0 -0.603,-0.185 -0.603,-1.206 v -0.75 z m -6.763,0 c 0.069,1.745 1.418,2.866 3.049,2.866 1.858,0 2.251,-1.365 2.251,-1.783 0,-0.222 -0.135,-0.222 -0.333,-0.222 h -3.285 c -0.209,0 -0.32,-0.012 -0.32,-0.653 0,-0.07 0.003,-0.14 0.008,-0.208 z m -3.851,0 c -0.463,0.252 -0.838,0.6 -0.838,1.181 0,0.701 0.554,1.685 2.19,1.685 0.184,0 1.095,-0.135 1.193,-0.135 0.307,-0.037 0.307,-0.172 0.307,-0.369 L -4.244,0.394 c 0,-0.049 -0.024,-0.197 -0.147,-0.197 -0.086,0 -0.147,0.025 -0.221,0.259 -0.075,0.233 -0.407,0.886 -1.232,0.886 -0.527,0 -0.983,-0.296 -0.983,-0.739 0,-0.492 0.27,-0.603 1.513,-1.119 0.263,-0.117 0.77,-0.325 1.109,-0.728 z m -7.199,0 v 0.774 c 0,0.579 0,0.85 -0.369,0.874 -0.196,0.013 -0.332,0.013 -0.332,0.173 0,0.074 0.037,0.123 0.172,0.159 0.087,0.025 0.873,0.358 1.256,0.801 0.085,0.098 0.184,0.221 0.27,0.221 0.111,0 0.135,-0.111 0.135,-0.221 V 0.936 c 0,-0.21 0,-0.247 0.05,-0.247 0.073,0 0.135,0.037 0.172,0.074 0.75,0.702 1.12,0.861 1.81,0.861 0.81,0 1.697,-0.442 1.697,-1.587 v -1.279 h -1.193 v 0.639 c 0,0.579 0,1.502 -1.206,1.502 -0.37,0 -0.751,-0.136 -1.034,-0.419 -0.185,-0.185 -0.233,-0.394 -0.233,-0.689 v -1.033 z m -7.136,0 c 0.015,1.397 1.168,2.866 2.991,2.866 1.402,0 2.965,-0.922 2.965,-2.781 0,-0.027 0,-0.054 -10e-4,-0.08 l -1.279,-0.005 c -0.013,0.864 -0.462,2.584 -1.784,2.584 -0.886,0 -1.612,-0.886 -1.612,-2.388 0,-0.067 0.002,-0.132 0.004,-0.198 z M 24.976,2.644 C 24.863,2.462 24.659,2.326 24.398,2.326 c -0.254,0 -0.467,0.128 -0.586,0.316 z m -4.089,0 C 20.905,2.618 20.919,2.575 20.919,2.511 V 1.674 c 0,-0.234 0.048,-0.283 0.308,-0.283 h 0.701 c 0.172,0 0.258,0.024 0.369,0.024 0.099,0 0.184,-0.024 0.159,-0.246 -0.024,-0.221 -0.06,-0.258 -0.221,-0.258 -0.209,0 -0.492,0.025 -1.083,0.025 -0.209,0 -0.233,-0.025 -0.233,-0.283 v -1.895 h -1.193 v 1.956 c 0,0.16 -0.099,0.234 -0.285,0.222 -0.098,0 -0.183,-0.013 -0.282,-0.013 -0.062,0 -0.21,0 -0.21,0.136 0,0.123 0.136,0.196 0.186,0.221 l 0.331,0.172 c 0.296,0.148 0.677,0.48 1.083,1.108 0.022,0.026 0.048,0.058 0.078,0.085 z m -42.911,0 0.066,-0.515 c 0,-0.123 0,-0.209 -0.147,-0.209 -0.087,0 -0.16,0.025 -0.295,0.221 -0.118,0.177 -0.237,0.347 -0.368,0.502 z m -4.267,0 c -0.741,-0.72 -1.093,-1.836 -1.093,-2.803 0,-0.356 0.043,-0.722 0.127,-1.078 l -1.602,-0.005 c -0.117,0.361 -0.174,0.715 -0.174,1.033 0,0.955 0.461,2.064 1.427,2.857 z" /></g><g
           transform="translate(330.4285,450.779)"
           id="g1106"
           style="fill:#ffffff"><path
             id="path1108"
             style="fill:#ffffff;fill-opacity:1;fill-rule:evenodd;stroke:none"
             d="m 0,0 c -0.065,0.1 -0.103,0.22 -0.103,0.346 0,0.345 0.284,0.677 0.689,0.677 0.383,0 0.677,-0.308 0.677,-0.689 C 1.263,0.219 1.228,0.102 1.164,0 Z m -3.185,0 c 0.038,0.036 0.083,0.063 0.132,0.063 0.024,0 0.088,0 0.128,-0.06 z m -48.233,0 c 0.763,0.631 1.843,1.06 3.261,1.06 0.566,0 0.775,-0.037 1.612,-0.172 0.554,-0.099 0.615,-0.209 0.664,-0.542 L -45.836,0 h -0.745 c -0.365,0.428 -0.831,0.74 -1.663,0.74 -0.778,0 -1.395,-0.293 -1.86,-0.743 z m 13.885,4.664 c 0,-0.418 0.026,-0.683 0.586,-0.725 0.232,-0.011 0.387,-0.022 0.387,-0.188 0,-0.155 -0.143,-0.155 -0.232,-0.155 -0.144,0 -0.532,0.044 -1.262,0.044 -0.941,0 -1.152,-0.044 -1.274,-0.044 -0.089,0 -0.232,0 -0.232,0.166 0,0.155 0.165,0.166 0.387,0.177 0.532,0.042 0.564,0.299 0.565,0.726 z" /></g><g
           transform="translate(299.9579,459.2032)"
           id="g1110"
           style="fill:#ffffff"><path
             id="path1112"
             style="fill:#ffffff;fill-opacity:1;fill-rule:evenodd;stroke:none"
             d="m 0,0 c 0,0.111 -0.066,0.122 -0.121,0.122 -0.156,0 -0.431,-0.144 -0.61,-0.232 -0.698,-0.333 -0.698,-0.754 -0.698,-0.975 0,-0.532 0.255,-0.731 0.5,-0.731 0.498,0 0.929,0.398 0.929,1.174 z m 43.671,0.132 v -1.45 c 0,-0.465 0,-0.764 0.565,-0.797 0.232,-0.011 0.387,-0.022 0.387,-0.188 0,-0.155 -0.145,-0.155 -0.233,-0.155 -0.111,0 -0.487,0.044 -1.262,0.044 -0.743,0 -1.186,-0.044 -1.252,-0.044 -0.089,0 -0.232,0 -0.232,0.166 0,0.155 0.155,0.166 0.387,0.177 0.565,0.044 0.565,0.332 0.565,0.797 v 1.45 z m -6.376,0 c 0.045,-1.309 0.704,-2.402 1.549,-2.402 0.807,0 1.505,1.03 1.505,2.336 0,0.021 -10e-4,0.041 -10e-4,0.063 L 41.5,0.132 c -0.024,-1.455 -1.102,-2.657 -2.625,-2.657 -1.716,0 -2.734,1.351 -2.734,2.603 v 0.056 z m -5.171,0 v -1.029 c 0,-0.498 0.067,-1.008 0.642,-1.008 0.165,0 0.32,0.034 0.709,0.277 0.033,0.022 0.088,0.045 0.121,0.045 0.055,0 0.088,-0.056 0.088,-0.1 0,-0.166 -0.707,-0.842 -1.516,-0.842 -0.576,0 -1.119,0.377 -1.119,1.207 v 1.45 z m -2.579,0 v -1.45 c 0,-0.62 0,-0.753 0.476,-0.819 0.276,-0.034 0.333,-0.089 0.333,-0.188 0,-0.133 -0.111,-0.133 -0.188,-0.133 -0.168,0 -0.975,0.044 -1.153,0.044 -0.165,0 -0.974,-0.044 -1.163,-0.044 -0.078,0 -0.188,0 -0.188,0.144 0,0.1 0.077,0.143 0.332,0.177 0.477,0.066 0.477,0.188 0.477,0.808 v 1.461 z m -3.301,0 v -1.45 c 0,-0.62 0,-0.753 0.477,-0.819 0.276,-0.034 0.332,-0.089 0.332,-0.188 0,-0.133 -0.11,-0.133 -0.188,-0.133 -0.167,0 -0.953,0.044 -1.163,0.044 -0.167,0 -0.964,-0.044 -1.142,-0.044 -0.087,0 -0.199,0 -0.199,0.144 0,0.1 0.091,0.143 0.333,0.177 0.477,0.066 0.477,0.188 0.477,0.808 v 1.461 z m -5.665,0 c 0.063,-1.161 0.862,-2.037 1.956,-2.037 0.498,0 0.952,0.189 1.218,0.444 0.167,0.165 0.178,0.177 0.244,0.177 0.078,0 0.099,-0.067 0.099,-0.1 0,-0.166 -0.774,-1.141 -2.181,-1.141 -1.463,0 -2.569,0.964 -2.569,2.503 0,0.051 0.001,0.101 0.003,0.15 z m -2.208,0 v -1.45 c 0,-0.62 0,-0.753 0.454,-0.819 0.277,-0.034 0.333,-0.089 0.333,-0.188 0,-0.133 -0.112,-0.133 -0.189,-0.133 -0.167,0 -0.554,0.044 -1.129,0.044 -0.632,0 -0.965,-0.044 -1.142,-0.044 -0.077,0 -0.188,0 -0.188,0.144 0,0.1 0.089,0.143 0.332,0.177 0.454,0.066 0.454,0.188 0.454,0.819 v 1.45 z m -3.123,0 v -1.45 c 0,-0.62 0,-0.753 0.455,-0.819 0.276,-0.034 0.332,-0.089 0.332,-0.188 0,-0.133 -0.111,-0.133 -0.189,-0.133 -0.177,0 -0.531,0.044 -1.129,0.044 -0.61,0 -0.964,-0.044 -1.142,-0.044 -0.088,0 -0.188,0 -0.188,0.144 0,0.1 0.077,0.143 0.333,0.177 0.453,0.066 0.453,0.188 0.453,0.819 v 1.45 z m -3.123,0 v -1.45 c 0,-0.62 0,-0.753 0.454,-0.819 0.277,-0.034 0.331,-0.089 0.331,-0.188 0,-0.133 -0.109,-0.133 -0.209,-0.133 -0.145,0 -0.554,0.044 -1.12,0.044 -0.508,0 -0.962,-0.044 -1.14,-0.044 -0.089,0 -0.211,0 -0.211,0.144 0,0.1 0.101,0.143 0.343,0.177 0.477,0.066 0.477,0.188 0.477,0.808 v 1.461 z m -3.652,0 v -1.029 c 0,-0.498 0.064,-1.008 0.641,-1.008 0.166,0 0.321,0.034 0.71,0.277 0.031,0.022 0.088,0.045 0.121,0.045 0.055,0 0.088,-0.056 0.088,-0.1 0,-0.166 -0.709,-0.842 -1.517,-0.842 -0.575,0 -1.118,0.377 -1.118,1.207 v 1.45 z m -4.154,0 v -1.461 c 0,-0.454 0,-0.753 0.566,-0.786 0.243,-0.011 0.398,-0.022 0.398,-0.188 0,-0.155 -0.144,-0.155 -0.232,-0.155 -0.189,0 -1.086,0.044 -1.285,0.044 -0.167,0 -0.975,-0.044 -1.152,-0.044 -0.077,0 -0.189,0 -0.189,0.144 0,0.1 0.078,0.143 0.333,0.177 0.488,0.066 0.488,0.188 0.488,0.808 v 1.461 z m -3.244,0 v -1.35 c 0,-0.343 0.033,-0.62 0.343,-0.62 0.122,0 0.232,0.044 0.322,0.111 0.121,0.099 0.132,0.11 0.188,0.11 0.065,0 0.098,-0.066 0.098,-0.099 0,-0.266 -0.675,-0.787 -1.162,-0.787 -0.432,0 -0.643,0.332 -0.774,0.598 -0.101,0.211 -0.123,0.211 -0.156,0.211 -0.022,0 -0.076,-0.044 -0.076,-0.044 -0.467,-0.377 -1.064,-0.787 -1.563,-0.787 -0.809,0 -0.864,0.764 -0.864,0.931 0,0.714 0.458,1.169 1.742,1.731 z m -8.139,0 v -1.284 c 0,-0.963 0.742,-1.107 1.064,-1.107 0.908,0 1.739,0.819 1.739,2.193 0,0.066 -0.002,0.132 -0.006,0.195 l 1.169,0.003 c -0.018,-1.695 -1.493,-2.657 -2.724,-2.657 -0.345,0 -0.765,0.089 -0.987,0.189 -0.033,0.011 -0.088,0.033 -0.121,0.033 -0.134,0 -0.134,-0.122 -0.134,-0.233 v -1.163 c 0,-0.02 0,-0.04 0.002,-0.059 L -8.137,-3.76 v 0.083 3.809 z m -5.721,0 c 0.065,-1.161 0.863,-2.037 1.957,-2.037 0.498,0 0.952,0.189 1.218,0.444 0.166,0.165 0.177,0.177 0.244,0.177 0.077,0 0.099,-0.067 0.099,-0.1 0,-0.166 -0.775,-1.141 -2.181,-1.141 -1.462,0 -2.57,0.964 -2.57,2.503 0,0.051 0.002,0.101 0.004,0.15 z m -6.925,0 v -1.217 c 0,-0.709 0.189,-1.097 1.041,-1.097 1.234,0 2.352,0.957 2.682,2.309 l 1.278,0.005 c -0.321,-1.177 -1.313,-2.59 -3.583,-2.59 -0.321,0 -1.75,0.044 -2.027,0.044 -0.199,0 -1.251,-0.044 -1.307,-0.044 -0.077,0 -0.221,0 -0.221,0.155 0,0.166 0.166,0.177 0.388,0.188 0.564,0.033 0.564,0.332 0.564,0.786 v 1.461 z" /></g><g
           transform="translate(322.1838,460.4216)"
           id="g1114"
           style="fill:#ffffff"><path
             id="path1116"
             style="fill:#ffffff;fill-opacity:1;fill-rule:evenodd;stroke:none"
             d="M 0,0 C 0.475,0 0.752,0.243 0.752,0.532 0.752,1.185 0,1.207 -0.167,1.207 -1.163,1.207 -1.508,0.299 -1.508,0.122 -1.508,0 -1.462,0 -1.209,0 Z m -33.364,0 c 0.476,0 0.753,0.243 0.753,0.532 0,0.653 -0.753,0.675 -0.92,0.675 -0.996,0 -1.339,-0.908 -1.339,-1.085 C -34.87,0 -34.826,0 -34.572,0 Z m 47.279,-1.087 c 0.03,1.248 1.064,2.549 2.69,2.549 1.263,0 2.669,-0.831 2.669,-2.503 V -1.09 l -1.152,0.003 c -0.021,0.782 -0.43,2.294 -1.605,2.294 -0.797,0 -1.451,-0.797 -1.451,-2.148 0,-0.049 0.002,-0.097 0.003,-0.144 z m -5.092,0 v 1.729 c 0,0.144 -0.088,0.211 -0.255,0.2 -0.088,0 -0.165,-0.012 -0.254,-0.012 -0.056,0 -0.187,0 -0.187,0.122 0,0.111 0.121,0.178 0.165,0.199 L 8.591,1.307 C 8.856,1.439 9.2,1.738 9.565,2.303 9.61,2.359 9.676,2.436 9.753,2.436 c 0.034,0 0.145,0 0.145,-0.177 V 1.506 c 0,-0.21 0.044,-0.255 0.276,-0.255 h 0.632 c 0.155,0 0.232,0.023 0.332,0.023 0.088,0 0.166,-0.023 0.145,-0.222 -0.023,-0.199 -0.057,-0.233 -0.201,-0.233 -0.188,0 -0.441,0.023 -0.974,0.023 -0.189,0 -0.21,-0.023 -0.21,-0.255 v -1.674 z m -5.878,0 v 0.666 c 0,0.52 0,0.764 -0.332,0.786 -0.178,0.012 -0.3,0.012 -0.3,0.155 0,0.067 0.034,0.111 0.155,0.144 0.077,0.022 0.787,0.322 1.129,0.72 0.078,0.089 0.167,0.2 0.245,0.2 0.099,0 0.122,-0.1 0.122,-0.2 V 0.842 c 0,-0.189 0,-0.222 0.044,-0.222 0.066,0 0.121,0.033 0.155,0.066 0.675,0.632 1.007,0.776 1.627,0.776 0.732,0 1.529,-0.399 1.529,-1.429 v -1.12 H 6.245 v 0.544 c 0,0.521 0,1.351 -1.085,1.351 C 4.827,0.808 4.484,0.686 4.229,0.432 4.063,0.266 4.018,0.077 4.018,-0.188 v -0.899 z m -5.822,0 c 0.074,1.55 1.284,2.549 2.743,2.549 1.671,0 2.027,-1.23 2.027,-1.606 0,-0.199 -0.122,-0.199 -0.299,-0.199 h -2.958 c -0.188,0 -0.286,-0.011 -0.286,-0.587 0,-0.051 0,-0.102 0.003,-0.152 z m -8.299,0 v 0.666 c 0,0.52 0,0.764 -0.332,0.786 -0.178,0.012 -0.31,0.012 -0.31,0.155 0,0.067 0.044,0.111 0.166,0.144 0.077,0.022 0.787,0.322 1.129,0.72 0.078,0.089 0.167,0.2 0.244,0.2 0.099,0 0.122,-0.1 0.122,-0.2 V 0.842 c 0,-0.189 0,-0.222 0.044,-0.222 0.034,0 0.089,0.055 0.155,0.122 0.621,0.653 1.02,0.72 1.518,0.72 0.133,0 0.82,-0.011 1.173,-0.576 0.155,-0.244 0.178,-0.266 0.222,-0.266 0.078,0 0.333,0.277 0.388,0.321 0.443,0.366 0.853,0.521 1.24,0.521 1.44,0 1.562,-0.986 1.562,-1.351 V -1.087 H -4.93 v 0.865 c 0,0.321 0,1.075 -0.929,1.075 -0.499,0 -0.819,-0.244 -0.954,-0.377 C -6.967,0.31 -6.978,0.077 -6.978,-0.155 v -0.932 h -1.075 v 0.71 c 0,0.565 -0.154,1.185 -0.918,1.185 -0.5,0 -0.743,-0.144 -0.953,-0.376 -0.144,-0.155 -0.177,-0.355 -0.177,-0.62 v -0.899 z m -3.652,0 v 1.729 c 0,0.144 -0.088,0.211 -0.255,0.2 -0.088,0 -0.166,-0.012 -0.254,-0.012 -0.056,0 -0.189,0 -0.189,0.122 0,0.111 0.122,0.178 0.166,0.199 l 0.3,0.156 c 0.266,0.132 0.609,0.431 0.974,0.996 0.044,0.056 0.111,0.133 0.188,0.133 0.034,0 0.145,0 0.145,-0.177 V 1.506 c 0,-0.21 0.043,-0.255 0.276,-0.255 h 0.631 c 0.155,0 0.232,0.023 0.333,0.023 0.088,0 0.165,-0.023 0.142,-0.222 -0.021,-0.199 -0.054,-0.233 -0.198,-0.233 -0.189,0 -0.443,0.023 -0.975,0.023 -0.188,0 -0.209,-0.023 -0.209,-0.255 v -1.674 z m -4.152,0 v 0.677 c 0,0.698 -0.144,0.72 -0.566,0.742 -0.033,0 -0.143,0 -0.143,0.122 0,0.078 0.044,0.122 0.177,0.155 0.254,0.089 0.885,0.432 1.117,0.676 0.023,0.022 0.278,0.276 0.333,0.276 0.111,0 0.123,-0.088 0.123,-0.188 V 0.819 c 0,-0.066 0,-0.155 0.065,-0.155 0.033,0 0.09,0.067 0.1,0.089 0.023,0.033 0.565,0.665 1.207,0.665 0.4,0 0.797,-0.222 0.797,-0.665 0,-0.454 -0.397,-0.631 -0.675,-0.631 -0.243,0 -0.398,0.088 -0.575,0.288 -0.189,0.21 -0.277,0.232 -0.344,0.232 -0.221,0 -0.543,-0.166 -0.543,-1.085 v -0.644 z m -4.073,0 c 0.168,0.08 0.352,0.156 0.55,0.234 0.266,0.111 0.277,0.2 0.277,0.399 v 0.731 c 0,0.387 -0.033,0.919 -0.552,0.919 -0.642,0 -0.887,-0.676 -0.975,-0.93 -0.178,-0.499 -0.82,-0.543 -0.831,-0.543 -0.123,0 -0.244,0.078 -0.244,0.221 0,0.377 0.698,1.518 2.381,1.518 1.041,0 1.296,-0.355 1.296,-0.809 v -1.74 z m -7.31,0 v 0.611 c 0,0.708 -0.011,0.853 -0.388,0.863 -0.177,0.012 -0.288,0.012 -0.288,0.156 0,0.11 0.033,0.121 0.399,0.265 0.189,0.067 0.687,0.299 1.04,0.709 0.078,0.1 0.134,0.144 0.211,0.144 0.122,0 0.099,-0.122 0.099,-0.222 V 0.964 c 0,-0.111 0,-0.222 0.123,-0.222 0.055,0 0.111,0.044 0.144,0.066 0.808,0.621 1.13,0.654 1.429,0.654 1.184,0 2.27,-1.008 2.27,-2.514 v -0.032 l -1.169,-0.003 c -0.079,1.221 -0.904,1.851 -1.766,1.851 -1.031,0 -1.031,-0.709 -1.031,-0.952 v -0.899 z m -5.877,0 c 0.073,1.55 1.283,2.549 2.743,2.549 1.672,0 2.027,-1.23 2.027,-1.606 0,-0.199 -0.122,-0.199 -0.3,-0.199 h -2.956 c -0.189,0 -0.288,-0.011 -0.288,-0.587 0,-0.051 0.001,-0.102 0.004,-0.152 z M 23.395,2.794 C 23.307,2.648 23.192,2.525 23.094,2.525 c -0.143,0 -0.299,0.166 -0.344,0.221 -0.012,0.017 -0.024,0.034 -0.036,0.05 z m -1.804,0 C 21.437,2.36 21.422,1.778 21.422,1.539 c 0,-0.243 0.044,-0.288 0.243,-0.288 h 0.543 c 0.31,0 0.388,0.023 0.488,0.023 0.099,0 0.155,-0.056 0.155,-0.322 0,-0.099 -0.044,-0.133 -0.166,-0.133 -0.221,0 -0.41,0.023 -0.997,0.023 -0.199,0 -0.243,-0.067 -0.243,-0.266 V -1.087 H 20.37 v 1.519 c 0,0.365 -0.067,0.398 -0.255,0.398 -0.021,0 -0.221,-0.022 -0.265,-0.022 -0.089,0 -0.166,0.022 -0.166,0.133 0,0.144 0.121,0.2 0.42,0.255 0.233,0.044 0.266,0.078 0.333,0.565 0.058,0.416 0.22,0.758 0.44,1.031 z m -60.257,0 c 0.133,-0.073 0.26,-0.15 0.385,-0.236 0.908,-0.62 1.473,-1.683 1.473,-2.757 0,-0.255 -0.038,-0.561 -0.127,-0.884 l -1.278,-0.004 c 0.063,0.257 0.098,0.534 0.098,0.821 0,1.031 -0.494,2.541 -1.954,3.061 z m -3.135,0 c -0.116,-0.143 -0.135,-0.373 -0.135,-0.701 v -3.18 h -1.185 v 3.246 c 0,0.454 -0.132,0.609 -0.354,0.609 -0.066,0 -0.388,-0.088 -0.465,-0.088 -0.095,0 -0.151,0.03 -0.155,0.11 z" /></g><g
           transform="translate(343.061,463.2158)"
           id="g1118"
           style="fill:#ffffff"><path
             id="path1120"
             style="fill:#ffffff;fill-opacity:1;fill-rule:evenodd;stroke:none"
             d="m 0,0 c 0.491,0.611 1.261,0.879 1.752,0.871 0.155,0 0.931,-0.044 0.931,-0.476 0,-0.079 -0.07,-0.25 -0.165,-0.399 L 1.837,0 C 1.543,0.393 1.445,0.506 1.242,0.506 0.979,0.506 0.815,0.285 0.714,-0.004 Z m -64.972,0 c 0,0 -0.001,0.004 -0.001,0.007 0,0.31 1.85,0.466 2.88,0.466 1.177,0 1.926,-0.151 2.55,-0.477 L -60.946,0 c -0.328,0.118 -0.705,0.185 -1.136,0.185 -0.312,0 -0.493,-0.059 -0.596,-0.186 z" /></g></g></g></g></svg>